<svg width="1600" height="1200" viewBox="0 0 1600 1200" fill="none" xmlns="http://www.w3.org/2000/svg">
  <defs>
    <linearGradient id="bg2" x1="0" y1="0" x2="1" y2="1">
      <stop offset="0%" stop-color="#30175F"/>
      <stop offset="50%" stop-color="#4B2B9A"/>
      <stop offset="100%" stop-color="#8A6EF1"/>
    </linearGradient>
    <radialGradient id="glow2" cx="0" cy="0" r="1" gradientTransform="translate(1200 220) rotate(30) scale(520 420)">
      <stop offset="0%" stop-color="#FFFFFF" stop-opacity="0.25"/>
      <stop offset="100%" stop-color="#FFFFFF" stop-opacity="0"/>
    </radialGradient>
  </defs>
  <rect width="1600" height="1200" rx="64" fill="url(#bg2)"/>
  <rect width="1600" height="1200" rx="64" fill="url(#glow2)"/>
  <g opacity="0.9">
    <rect x="140" y="170" width="1320" height="220" rx="30" fill="#2A1B54" stroke="#7D64EC" stroke-width="2"/>
    <rect x="200" y="230" width="220" height="18" rx="9" fill="#CDBEFF"/>
    <rect x="200" y="265" width="720" height="28" rx="14" fill="#F0E9FF"/>
  </g>
  <g opacity="0.9">
    <rect x="140" y="450" width="760" height="520" rx="36" fill="#3B2477" stroke="#8C74F2" stroke-width="2"/>
    <rect x="200" y="520" width="300" height="22" rx="11" fill="#F0E9FF"/>
    <rect x="200" y="570" width="420" height="16" rx="8" fill="#CDBEFF"/>
    <rect x="200" y="610" width="360" height="16" rx="8" fill="#CDBEFF"/>
    <rect x="200" y="650" width="320" height="16" rx="8" fill="#CDBEFF"/>
    <rect x="200" y="700" width="520" height="120" rx="18" fill="#2E1E61"/>
  </g>
  <g opacity="0.9">
    <rect x="960" y="450" width="500" height="520" rx="36" fill="#4A2EA2" stroke="#9C86F7" stroke-width="2"/>
    <rect x="1020" y="520" width="260" height="20" rx="10" fill="#F0E9FF"/>
    <rect x="1020" y="570" width="320" height="14" rx="7" fill="#D7C9FF"/>
    <rect x="1020" y="610" width="280" height="14" rx="7" fill="#D7C9FF"/>
    <rect x="1020" y="650" width="300" height="14" rx="7" fill="#D7C9FF"/>
    <rect x="1020" y="700" width="260" height="14" rx="7" fill="#D7C9FF"/>
  </g>
</svg>
