<svg width="1600" height="1200" viewBox="0 0 1600 1200" fill="none" xmlns="http://www.w3.org/2000/svg">
  <defs>
    <linearGradient id="bg" x1="0" y1="0" x2="1" y2="1">
      <stop offset="0%" stop-color="#2F1B63"/>
      <stop offset="50%" stop-color="#4C2EA6"/>
      <stop offset="100%" stop-color="#8B6CF2"/>
    </linearGradient>
    <radialGradient id="glow" cx="0" cy="0" r="1" gradientTransform="translate(320 240) rotate(45) scale(520 420)">
      <stop offset="0%" stop-color="#FFFFFF" stop-opacity="0.35"/>
      <stop offset="100%" stop-color="#FFFFFF" stop-opacity="0"/>
    </radialGradient>
  </defs>
  <rect width="1600" height="1200" rx="64" fill="url(#bg)"/>
  <rect width="1600" height="1200" rx="64" fill="url(#glow)"/>
  <g opacity="0.85">
    <rect x="120" y="140" width="900" height="260" rx="28" fill="#2A1B54" stroke="#6D54D6" stroke-width="2"/>
    <rect x="160" y="190" width="220" height="16" rx="8" fill="#BDA8FF"/>
    <rect x="160" y="230" width="560" height="26" rx="13" fill="#E8DFFF"/>
    <rect x="160" y="270" width="420" height="18" rx="9" fill="#C8B6FF"/>
    <rect x="160" y="300" width="300" height="14" rx="7" fill="#C8B6FF"/>
  </g>
  <g opacity="0.9">
    <rect x="120" y="470" width="620" height="300" rx="30" fill="#3B2477" stroke="#7A61E8" stroke-width="2"/>
    <rect x="160" y="520" width="280" height="24" rx="12" fill="#F0E9FF"/>
    <polyline points="180,700 260,660 340,680 420,620 500,640 580,600" fill="none" stroke="#F6C453" stroke-width="8" stroke-linecap="round"/>
  </g>
  <g opacity="0.9">
    <rect x="780" y="470" width="700" height="300" rx="30" fill="#412886" stroke="#8D74F2" stroke-width="2"/>
    <circle cx="840" cy="540" r="10" fill="#F6C453"/>
    <rect x="860" y="530" width="360" height="18" rx="9" fill="#E8DFFF"/>
    <circle cx="840" cy="585" r="10" fill="#F6C453"/>
    <rect x="860" y="575" width="300" height="18" rx="9" fill="#D7C9FF"/>
    <circle cx="840" cy="630" r="10" fill="#F6C453"/>
    <rect x="860" y="620" width="330" height="18" rx="9" fill="#C8B6FF"/>
  </g>
  <g opacity="0.9">
    <rect x="120" y="830" width="420" height="180" rx="28" fill="#4A2EA2"/>
    <rect x="200" y="890" width="220" height="20" rx="10" fill="#F0E9FF"/>
    <rect x="120" y="830" width="420" height="180" rx="28" stroke="#8C74F2" stroke-width="2"/>
  </g>
  <g opacity="0.9">
    <rect x="590" y="830" width="420" height="180" rx="28" fill="#3E2688"/>
    <rect x="670" y="890" width="240" height="20" rx="10" fill="#E8DFFF"/>
    <rect x="590" y="830" width="420" height="180" rx="28" stroke="#8066E8" stroke-width="2"/>
  </g>
  <g opacity="0.9">
    <rect x="1060" y="830" width="420" height="180" rx="28" fill="#5C38C2"/>
    <rect x="1140" y="890" width="200" height="20" rx="10" fill="#E8DFFF"/>
    <rect x="1060" y="830" width="420" height="180" rx="28" stroke="#9C86F7" stroke-width="2"/>
  </g>
</svg>
