<svg width="1600" height="1200" viewBox="0 0 1600 1200" fill="none" xmlns="http://www.w3.org/2000/svg">
  <defs>
    <linearGradient id="bg3" x1="0" y1="0" x2="1" y2="1">
      <stop offset="0%" stop-color="#2E165B"/>
      <stop offset="50%" stop-color="#4A2B96"/>
      <stop offset="100%" stop-color="#8E70F2"/>
    </linearGradient>
    <radialGradient id="glow3" cx="0" cy="0" r="1" gradientTransform="translate(360 260) rotate(30) scale(520 420)">
      <stop offset="0%" stop-color="#FFFFFF" stop-opacity="0.28"/>
      <stop offset="100%" stop-color="#FFFFFF" stop-opacity="0"/>
    </radialGradient>
  </defs>
  <rect width="1600" height="1200" rx="64" fill="url(#bg3)"/>
  <rect width="1600" height="1200" rx="64" fill="url(#glow3)"/>
  <g opacity="0.9">
    <rect x="140" y="170" width="1320" height="240" rx="34" fill="#2A1B54" stroke="#7D64EC" stroke-width="2"/>
    <rect x="200" y="240" width="240" height="18" rx="9" fill="#CDBEFF"/>
    <rect x="200" y="275" width="760" height="26" rx="13" fill="#F0E9FF"/>
    <rect x="200" y="315" width="520" height="18" rx="9" fill="#D7C9FF"/>
  </g>
  <g opacity="0.9">
    <rect x="140" y="470" width="620" height="620" rx="36" fill="#3B2477" stroke="#8C74F2" stroke-width="2"/>
    <rect x="200" y="540" width="320" height="20" rx="10" fill="#F0E9FF"/>
    <rect x="200" y="580" width="420" height="14" rx="7" fill="#D7C9FF"/>
    <rect x="200" y="620" width="380" height="14" rx="7" fill="#D7C9FF"/>
    <rect x="200" y="660" width="340" height="14" rx="7" fill="#D7C9FF"/>
  </g>
  <g opacity="0.9">
    <rect x="820" y="470" width="640" height="360" rx="36" fill="#4A2EA2" stroke="#9C86F7" stroke-width="2"/>
    <rect x="880" y="540" width="260" height="20" rx="10" fill="#F0E9FF"/>
    <rect x="880" y="580" width="320" height="14" rx="7" fill="#D7C9FF"/>
    <rect x="880" y="620" width="280" height="14" rx="7" fill="#D7C9FF"/>
    <rect x="880" y="660" width="300" height="14" rx="7" fill="#D7C9FF"/>
  </g>
  <g opacity="0.9">
    <rect x="820" y="860" width="640" height="230" rx="36" fill="#5C38C2" stroke="#A08DF8" stroke-width="2"/>
    <rect x="880" y="920" width="300" height="18" rx="9" fill="#F0E9FF"/>
  </g>
</svg>
