<svg width="900" height="900" viewBox="0 0 900 900" fill="none" xmlns="http://www.w3.org/2000/svg">
  <defs>
    <linearGradient id="ill1" x1="0" y1="0" x2="1" y2="1">
      <stop offset="0%" stop-color="#F0E9FF"/>
      <stop offset="100%" stop-color="#E2D8FF"/>
    </linearGradient>
    <linearGradient id="ill2" x1="0" y1="0" x2="1" y2="1">
      <stop offset="0%" stop-color="#6D28D9"/>
      <stop offset="100%" stop-color="#A855F7"/>
    </linearGradient>
  </defs>
  <rect width="900" height="900" rx="80" fill="url(#ill1)"/>
  <rect x="120" y="140" width="660" height="220" rx="36" fill="#FFFFFF" stroke="#DCCEFF" stroke-width="2"/>
  <rect x="180" y="200" width="300" height="16" rx="8" fill="#CDBEFF"/>
  <rect x="180" y="240" width="420" height="22" rx="11" fill="#E2D8FF"/>
  <rect x="180" y="280" width="260" height="14" rx="7" fill="#DCCEFF"/>
  <rect x="120" y="400" width="320" height="320" rx="36" fill="#FFFFFF" stroke="#DCCEFF" stroke-width="2"/>
  <polyline points="160,640 230,600 300,620 370,560" fill="none" stroke="url(#ill2)" stroke-width="10" stroke-linecap="round"/>
  <rect x="480" y="400" width="300" height="320" rx="36" fill="#FFFFFF" stroke="#DCCEFF" stroke-width="2"/>
  <circle cx="540" cy="480" r="10" fill="#7C3AED"/>
  <rect x="565" y="470" width="170" height="16" rx="8" fill="#CDBEFF"/>
  <circle cx="540" cy="520" r="10" fill="#7C3AED"/>
  <rect x="565" y="510" width="140" height="16" rx="8" fill="#CDBEFF"/>
  <circle cx="540" cy="560" r="10" fill="#7C3AED"/>
  <rect x="565" y="550" width="160" height="16" rx="8" fill="#CDBEFF"/>
</svg>
