<svg width="900" height="900" viewBox="0 0 900 900" fill="none" xmlns="http://www.w3.org/2000/svg">
  <defs>
    <linearGradient id="illp1" x1="0" y1="0" x2="1" y2="1">
      <stop offset="0%" stop-color="#F3EDFF"/>
      <stop offset="100%" stop-color="#E6D9FF"/>
    </linearGradient>
    <linearGradient id="illp2" x1="0" y1="0" x2="1" y2="1">
      <stop offset="0%" stop-color="#5B21B6"/>
      <stop offset="100%" stop-color="#C084FC"/>
    </linearGradient>
  </defs>
  <rect width="900" height="900" rx="80" fill="url(#illp1)"/>
  <rect x="140" y="160" width="620" height="200" rx="36" fill="#FFFFFF" stroke="#DCCEFF" stroke-width="2"/>
  <rect x="200" y="210" width="260" height="18" rx="9" fill="#CDBEFF"/>
  <rect x="200" y="250" width="360" height="22" rx="11" fill="#E2D8FF"/>
  <rect x="140" y="400" width="620" height="360" rx="36" fill="#FFFFFF" stroke="#DCCEFF" stroke-width="2"/>
  <rect x="200" y="450" width="320" height="18" rx="9" fill="#CDBEFF"/>
  <rect x="200" y="500" width="420" height="16" rx="8" fill="#E2D8FF"/>
  <rect x="200" y="540" width="380" height="16" rx="8" fill="#E2D8FF"/>
  <rect x="200" y="580" width="340" height="16" rx="8" fill="#E2D8FF"/>
  <rect x="200" y="620" width="300" height="16" rx="8" fill="#E2D8FF"/>
  <circle cx="700" cy="470" r="26" fill="url(#illp2)"/>
  <circle cx="700" cy="550" r="26" fill="url(#illp2)"/>
  <circle cx="700" cy="630" r="26" fill="url(#illp2)"/>
</svg>
