<svg width="900" height="900" viewBox="0 0 900 900" fill="none" xmlns="http://www.w3.org/2000/svg">
  <defs>
    <linearGradient id="illr1" x1="0" y1="0" x2="1" y2="1">
      <stop offset="0%" stop-color="#F5EEFF"/>
      <stop offset="100%" stop-color="#E8DCFF"/>
    </linearGradient>
    <linearGradient id="illr2" x1="0" y1="0" x2="1" y2="1">
      <stop offset="0%" stop-color="#7C3AED"/>
      <stop offset="100%" stop-color="#C084FC"/>
    </linearGradient>
  </defs>
  <rect width="900" height="900" rx="80" fill="url(#illr1)"/>
  <rect x="140" y="150" width="620" height="260" rx="36" fill="#FFFFFF" stroke="#DCCEFF" stroke-width="2"/>
  <rect x="200" y="210" width="260" height="18" rx="9" fill="#CDBEFF"/>
  <rect x="200" y="250" width="380" height="22" rx="11" fill="#E2D8FF"/>
  <rect x="200" y="290" width="300" height="16" rx="8" fill="#DCCEFF"/>
  <rect x="140" y="450" width="300" height="300" rx="36" fill="#FFFFFF" stroke="#DCCEFF" stroke-width="2"/>
  <rect x="180" y="510" width="220" height="16" rx="8" fill="#CDBEFF"/>
  <rect x="180" y="550" width="180" height="14" rx="7" fill="#E2D8FF"/>
  <rect x="180" y="590" width="200" height="14" rx="7" fill="#E2D8FF"/>
  <rect x="480" y="450" width="280" height="300" rx="36" fill="#FFFFFF" stroke="#DCCEFF" stroke-width="2"/>
  <rect x="520" y="510" width="200" height="16" rx="8" fill="#CDBEFF"/>
  <rect x="520" y="550" width="160" height="14" rx="7" fill="#E2D8FF"/>
  <rect x="520" y="590" width="180" height="14" rx="7" fill="#E2D8FF"/>
  <circle cx="720" cy="520" r="40" fill="url(#illr2)"/>
</svg>
