<svg width="1200" height="520" viewBox="0 0 1200 520" fill="none" xmlns="http://www.w3.org/2000/svg">
  <defs>
    <linearGradient id="tw" x1="0" y1="0" x2="1" y2="1">
      <stop offset="0%" stop-color="#F7F2FF"/>
      <stop offset="100%" stop-color="#EADCFD"/>
    </linearGradient>
  </defs>
  <rect width="1200" height="520" rx="36" fill="url(#tw)"/>
  <g fill="#CDBEFF">
    <rect x="70" y="80" width="220" height="80" rx="20"/>
    <rect x="330" y="80" width="220" height="80" rx="20"/>
    <rect x="590" y="80" width="220" height="80" rx="20"/>
    <rect x="850" y="80" width="220" height="80" rx="20"/>
    <rect x="70" y="200" width="220" height="80" rx="20"/>
    <rect x="330" y="200" width="220" height="80" rx="20"/>
    <rect x="590" y="200" width="220" height="80" rx="20"/>
    <rect x="850" y="200" width="220" height="80" rx="20"/>
    <rect x="200" y="320" width="220" height="80" rx="20"/>
    <rect x="460" y="320" width="220" height="80" rx="20"/>
    <rect x="720" y="320" width="220" height="80" rx="20"/>
  </g>
</svg>
